#define desk_width 12
#define desk_height 12
static unsigned char desk_bits[] = {
   0x00, 0x00, 0x00, 0x00, 0x00, 0x00, 0x10, 0x00, 0x38, 0x00, 0xfc, 0x00,
   0x78, 0x00, 0x70, 0x00, 0x90, 0x00, 0x00, 0x01, 0x00, 0x00, 0x00, 0x00 };
