#define desk_toggled_width 12
#define desk_toggled_height 12
static unsigned char desk_toggled_bits[] = {
   0x00, 0x00, 0x00, 0x00, 0x9c, 0x03, 0x9c, 0x03, 0x9c, 0x03, 0x00, 0x00,
   0x00, 0x00, 0x9c, 0x03, 0x9c, 0x03, 0x9c, 0x03, 0x00, 0x00, 0x00, 0x00 };
