#define max_width 12
#define max_height 12
static unsigned char max_bits[] = {
   0xc0, 0x0f, 0x80, 0x0f, 0x80, 0x0f, 0xc0, 0x0f, 0xc0, 0x0f, 0x80, 0x09,
   0x19, 0x00, 0x3f, 0x00, 0x3f, 0x00, 0x1f, 0x00, 0x1f, 0x00, 0x3f, 0x00 };
