#define shade_width 12
#define shade_height 12
static unsigned char shade_bits[] = {
   0x00, 0x00, 0x00, 0x00, 0xfc, 0x03, 0xfc, 0x03, 0x00, 0x00, 0x00, 0x00,
   0x00, 0x00, 0x00, 0x00, 0x00, 0x00, 0x00, 0x00, 0x00, 0x00, 0x00, 0x00 };
