#define max_toggled_width 12
#define max_toggled_height 12
static unsigned char max_toggled_bits[] = {
   0x40, 0x06, 0xc0, 0x0f, 0xc0, 0x0f, 0xc0, 0x07, 0xc0, 0x07, 0xc0, 0x0f,
   0x3f, 0x00, 0x3e, 0x00, 0x3e, 0x00, 0x3f, 0x00, 0x3f, 0x00, 0x26, 0x00 };
